# xmcd CD database file
#
# Track frame offsets:
#	150
#	17665
#	44423
#	68604
#	93912
#	106596
#	121824
#	150332
#	171225
#	188935
#	223181
#	242209
#
# Disc length: 3536 seconds
#
# Revision: 0
# Processed by: cddbd v1.5.2PL0 Copyright (c) Steve Scherf et al.
# Submitted via: CDex 1.51
#
DISCID=960dce0c
DTITLE=Various Artist - Hastings Street Grease - Detroit Blues is Alive! - Vol. 1
DYEAR=1998
DGENRE=Blues
TTITLE0=Eddie Kirkland - You Ain't Fooling Me Baby
TTITLE1=Detriot Piano Fats - Hastings Street Revisited, Part 1
TTITLE2=Eddie Burns - Dixie Boogie
TTITLE3=Willie D. Warren - Killing Floor
TTITLE4=Howard Armstrong - Good Morning Judge
TTITLE5=Emmanuel Young - Tore Up
TTITLE6=Harmonica Shah - Stubborn As A Mule
TTITLE7=Leon Horner - I Lost A Little Girl
TTITLE8=Eddie Kirkland - Something's Going Wrong
TTITLE9=Eddie Burns - Stop Lying
TTITLE10=Harmonica Shah - My Old Time Used To Be
TTITLE11=Eddie Kirkland - I Walk Down Hastings Street
EXTD=YEAR: 1998
EXTT0=
EXTT1=
EXTT2=
EXTT3=
EXTT4=
EXTT5=
EXTT6=
EXTT7=
EXTT8=
EXTT9=
EXTT10=
EXTT11=
PLAYORDER=
